<svg width="857" height="444" viewBox="0 0 857 444" fill="none" xmlns="http://www.w3.org/2000/svg">
<rect x="117" y="94.354" width="650" height="349.646" rx="5" fill="#C4C4C4"/>
<rect width="214.166" height="150.026" rx="5" transform="matrix(0.773731 0.633514 -0.804866 0.593457 120.751 5)" fill="#F3F3F3"/>
<rect width="203.59" height="150.026" rx="5" transform="matrix(0.773731 -0.633514 0.804866 0.593457 578 128.977)" fill="#F3F3F3"/>
<path d="M687 402.96C572 332.254 489 332.254 453 333.031C417 333.808 263 327.592 212 383.535" stroke="black" stroke-width="60"/>
<path d="M393 225.285C393 243.523 368.823 258.307 339 258.307C309.177 258.307 285 243.523 285 225.285C285 207.047 309.177 192.263 339 192.263C368.823 192.263 393 207.047 393 225.285Z" fill="#F3F3F3"/>
<path d="M393 225.285C393 243.523 368.823 258.307 339 258.307C309.177 258.307 285 243.523 285 225.285C285 207.047 309.177 192.263 339 192.263C368.823 192.263 393 207.047 393 225.285Z" fill="#F3F3F3"/>
<path d="M393 225.285C393 243.523 368.823 258.307 339 258.307C309.177 258.307 285 243.523 285 225.285C285 207.047 309.177 192.263 339 192.263C368.823 192.263 393 207.047 393 225.285Z" fill="#F3F3F3"/>
<ellipse cx="512" cy="222.946" rx="54" ry="33.0221" fill="#F3F3F3"/>
<ellipse cx="512" cy="222.946" rx="54" ry="33.0221" fill="#F3F3F3"/>
<ellipse cx="512" cy="222.946" rx="54" ry="33.0221" fill="#F3F3F3"/>
</svg>
